<?xml version="1.0" encoding="utf-8"?>
<!-- Generator: Adobe Illustrator 27.8.1, SVG Export Plug-In . SVG Version: 6.00 Build 0)  -->
<svg version="1.1" id="Layer_1" xmlns="http://www.w3.org/2000/svg" xmlns:xlink="http://www.w3.org/1999/xlink" x="0px" y="0px"
	 viewBox="0 0 32 32" style="enable-background:new 0 0 32 32;" xml:space="preserve">
<style type="text/css">
	.st0{fill:#015547;}
	.st1{fill:#088172;}
	.st2{fill:#010101;}
</style>
<g>
	<g>
		<g>
			<g>
				<path class="st0" d="M6.57,14.9c0,0.01-0.01,0.02-0.01,0.03l-0.07,0.15l-0.08,0.15l-0.08-0.15L6.29,15l0.07-0.15
					c0.09-0.18,0.1-0.38,0.05-0.56l0.04,0.07l0.11,0.22C6.62,14.68,6.62,14.8,6.57,14.9z"/>
				<polygon class="st0" points="5.91,16.22 5.75,16.55 5.67,16.7 5.59,16.55 5.56,16.47 5.8,15.99 5.84,16.07 				"/>
				<polygon class="st0" points="8.86,16.23 8.69,16.55 8.62,16.71 8.54,16.55 8.5,16.48 8.74,16 8.78,16.07 				"/>
				<path class="st0" d="M9.52,14.9c0,0.01-0.01,0.02-0.01,0.03l-0.07,0.15l-0.08,0.15l-0.08-0.15l-0.04-0.07l0.07-0.15
					c0.09-0.18,0.1-0.38,0.05-0.56l0.04,0.07l0.11,0.21c0,0,0,0,0,0C9.56,14.69,9.56,14.81,9.52,14.9z"/>
			</g>
			<g>
				<path class="st1" d="M10.87,17.49c0,0.31-0.19,0.61-0.51,0.75c-0.12,0.05-0.25,0.08-0.37,0.08c-0.33,0-0.65-0.18-0.8-0.48
					l-0.56-1.13l0.08-0.15l0.16-0.33l0.72,1.44c0.07,0.15,0.23,0.24,0.41,0.24c0.07,0,0.13-0.01,0.19-0.04
					c0.22-0.1,0.32-0.35,0.22-0.56l-1.04-2.08l0.08-0.15l0.07-0.15c0-0.01,0.01-0.02,0.01-0.03c0.04-0.1,0.04-0.21,0-0.31l1.27,2.54
					C10.84,17.25,10.87,17.37,10.87,17.49z"/>
				<polygon class="st1" points="7.49,14.6 7.49,14.6 7.03,15.52 				"/>
				<path class="st1" d="M9.31,14.86l-0.07,0.15L8.74,16L8.5,16.48l-0.11,0.22l-0.51,1.02l-0.05,0.1c0,0,0,0.01-0.01,0.01
					c-0.01,0.02-0.02,0.03-0.02,0.05c-0.16,0.26-0.46,0.42-0.77,0.42c-0.13,0-0.25-0.03-0.37-0.08c-0.08-0.03-0.15-0.08-0.21-0.13
					c0,0-0.01,0-0.01-0.01c-0.01-0.01-0.02-0.01-0.02-0.02c-0.01-0.01-0.02-0.02-0.03-0.03C6.36,18.02,6.35,18,6.34,17.99
					c-0.04-0.05-0.07-0.1-0.1-0.16L6.2,17.75l-0.03-0.06l-0.5-0.99l0.08-0.15l0.16-0.33l0.38,0.77v0l0.29,0.57l0.02,0.05
					c0,0,0,0.01,0,0.01c0.02,0.04,0.04,0.08,0.07,0.11c0.01,0.01,0.01,0.01,0.02,0.02c0.01,0.01,0.02,0.02,0.03,0.03
					c0,0,0.01,0.01,0.01,0.01c0.01,0.01,0.02,0.01,0.02,0.02c0.08,0.06,0.18,0.09,0.28,0.09c0.06,0,0.12-0.01,0.17-0.03
					c0,0,0,0,0.01,0c0.09-0.04,0.17-0.11,0.22-0.2l0.72-1.44L8.26,16l0.24-0.48l0.42-0.83c0.04-0.08,0.05-0.17,0.03-0.25
					c0-0.02-0.01-0.04-0.02-0.07c-0.03-0.08-0.09-0.15-0.16-0.2c-0.02-0.01-0.05-0.03-0.07-0.04c-0.06-0.03-0.12-0.04-0.19-0.04
					c-0.15,0-0.29,0.07-0.37,0.18c0,0,0,0-0.01,0.01c-0.01,0.02-0.02,0.03-0.03,0.05l-0.03,0.05l-0.31,0.62l-0.11,0.22l-0.62,1.24
					L6.79,16v0l-0.38-0.77l0.08-0.15l0.07-0.15c0.01-0.01,0.01-0.02,0.01-0.03c0.05-0.1,0.04-0.21-0.01-0.31l0.47,0.93l0.46-0.92
					c0,0,0,0,0,0c0,0,0,0,0,0l0,0l0.18-0.35c0,0,0,0,0-0.01l0.04-0.07c0.01-0.02,0.02-0.03,0.03-0.05c0.01-0.02,0.02-0.03,0.03-0.05
					l0.02-0.03c0.17-0.22,0.44-0.35,0.72-0.35c0.13,0,0.25,0.03,0.37,0.08c0.25,0.11,0.42,0.31,0.48,0.54v0c0,0,0,0,0,0
					C9.42,14.48,9.4,14.68,9.31,14.86z"/>
				<path class="st1" d="M6.42,14.29L6.4,14.24v0l-0.04-0.07c-0.15-0.3-0.47-0.48-0.8-0.48c-0.13,0-0.25,0.03-0.37,0.08
					c-0.14,0.06-0.26,0.15-0.34,0.26c-0.01,0.01-0.02,0.02-0.02,0.03c-0.01,0.01-0.02,0.03-0.03,0.04
					c-0.01,0.02-0.02,0.04-0.03,0.05l-0.03,0.06l-1.45,2.9c-0.06,0.11-0.08,0.23-0.08,0.35c0,0.31,0.19,0.61,0.51,0.75
					c0.12,0.05,0.25,0.08,0.37,0.08c0.33,0,0.65-0.18,0.8-0.48l0.67-1.34l0.24-0.48L6.29,15l0.07-0.15
					C6.46,14.67,6.47,14.47,6.42,14.29z M4.49,17.64c-0.07,0.15-0.23,0.24-0.41,0.24c-0.07,0-0.13-0.01-0.19-0.04
					c-0.11-0.05-0.19-0.13-0.23-0.24c-0.04-0.11-0.04-0.22,0.02-0.32c0.07-0.15,0.23-0.24,0.41-0.24c0.07,0,0.13,0.01,0.19,0.04
					c0.11,0.05,0.19,0.13,0.23,0.24C4.55,17.43,4.54,17.54,4.49,17.64z M5.97,14.68l-0.42,0.83l-0.24,0.48L4.81,17
					c-0.09-0.12-0.21-0.22-0.35-0.28c-0.12-0.05-0.25-0.08-0.37-0.08c-0.03,0-0.06,0-0.09,0L4.82,15l0.31-0.62l0.03-0.05
					c0.01-0.01,0.01-0.03,0.02-0.04c0-0.01,0.01-0.01,0.02-0.02c0.08-0.11,0.22-0.18,0.37-0.18c0.06,0,0.13,0.01,0.19,0.04
					c0.02,0.01,0.05,0.02,0.07,0.04c0.07,0.05,0.13,0.12,0.16,0.2C6,14.38,6,14.41,6.01,14.43C6.02,14.52,6.01,14.6,5.97,14.68z"/>
			</g>
		</g>
	</g>
	<g>
		<path class="st2" d="M14.03,14.84v2.32h-0.42v-1.55H13.6l-0.68,1.11h-0.28l-0.68-1.11h-0.01v1.55h-0.42v-2.32h0.42l0.82,1.39h0.01
			l0.82-1.39H14.03z"/>
		<path class="st2" d="M14.32,16.21v-1.36h0.42v1.33c0,0.37,0.21,0.64,0.56,0.64c0.33,0,0.57-0.24,0.57-0.64v-1.33h0.42v1.36
			c0,0.6-0.37,0.98-0.99,0.98C14.72,17.18,14.32,16.83,14.32,16.21z"/>
		<path class="st2" d="M17.94,17.16l-0.59-0.83h-0.33v0.83h-0.42v-2.32h0.92c0.59,0,0.85,0.32,0.85,0.75c0,0.38-0.21,0.61-0.54,0.7
			v0.01l0.63,0.86L17.94,17.16z M17.01,15.98h0.4c0.34,0,0.5-0.16,0.5-0.39c0-0.24-0.17-0.39-0.47-0.39h-0.43V15.98z"/>
		<path class="st2" d="M19.48,17.18c-0.32,0-0.64-0.11-0.9-0.36l0.27-0.31c0.18,0.2,0.42,0.31,0.64,0.31c0.27,0,0.41-0.11,0.41-0.28
			c0-0.2-0.17-0.27-0.48-0.37c-0.38-0.12-0.75-0.28-0.75-0.7c0-0.36,0.35-0.65,0.78-0.65c0.29,0,0.57,0.1,0.82,0.28l-0.25,0.31
			c-0.2-0.16-0.4-0.24-0.57-0.24c-0.19,0-0.34,0.1-0.35,0.27c0,0.17,0.16,0.23,0.46,0.34c0.43,0.15,0.77,0.26,0.77,0.71
			C20.34,16.97,19.88,17.18,19.48,17.18L19.48,17.18z"/>
		<path class="st2" d="M20.6,14.84h0.42v1.03h1.12v-1.03h0.42v2.32h-0.42v-0.93h-1.12v0.93H20.6V14.84z"/>
		<path class="st2" d="M22.89,14.84h1.56v0.35h-1.14v0.64h0.92v0.35h-0.92v0.62h1.21v0.35h-1.64V14.84z"/>
		<path class="st2" d="M24.81,14.84h1.56v0.35h-1.14v0.64h0.92v0.35h-0.92v0.62h1.21v0.35h-1.64V14.84z"/>
		<path class="st2" d="M26.72,14.84h0.79c0.79,0,1.29,0.48,1.29,1.16c0,0.68-0.48,1.15-1.28,1.15h-0.8V14.84z M27.5,16.8
			c0.53,0,0.87-0.34,0.87-0.8c0-0.47-0.35-0.81-0.84-0.81h-0.38v1.61L27.5,16.8z"/>
	</g>
</g>
</svg>
